<mxfile host="65bd71144e">
    <diagram id="dPa3eCRp1KqCvTpyh3m8" name="Page-1">
        <mxGraphModel dx="960" dy="650" grid="1" gridSize="10" guides="1" tooltips="1" connect="1" arrows="1" fold="1" page="1" pageScale="1" pageWidth="827" pageHeight="1169" background="#FFFFFF" math="0" shadow="0">
            <root>
                <mxCell id="0"/>
                <mxCell id="1" parent="0"/>
                <mxCell id="23" value="&lt;span style=&quot;font-size: 12px&quot;&gt;window load&lt;/span&gt;" style="edgeStyle=orthogonalEdgeStyle;rounded=0;orthogonalLoop=1;jettySize=auto;html=1;exitX=0.5;exitY=1;exitDx=0;exitDy=0;entryX=0.5;entryY=0;entryDx=0;entryDy=0;" parent="1" source="2" target="63" edge="1">
                    <mxGeometry relative="1" as="geometry">
                        <mxPoint x="241" y="109" as="targetPoint"/>
                    </mxGeometry>
                </mxCell>
                <mxCell id="2" value="" style="ellipse;fillColor=#000000;strokeColor=none;" parent="1" vertex="1">
                    <mxGeometry x="441" y="29" width="30" height="30" as="geometry"/>
                </mxCell>
                <mxCell id="25" value="startGame" style="swimlane;fontStyle=4;align=center;verticalAlign=top;childLayout=stackLayout;horizontal=1;startSize=37;horizontalStack=0;resizeParent=1;resizeParentMax=0;resizeLast=0;collapsible=0;marginBottom=0;html=1;rounded=1;absoluteArcSize=1;arcSize=25;" parent="1" vertex="1">
                    <mxGeometry x="321" y="269" width="270" height="177" as="geometry"/>
                </mxCell>
                <mxCell id="46" value="Nulstil point, liv og speed" style="fillColor=none;strokeColor=none;align=left;verticalAlign=middle;spacingLeft=5;" parent="25" vertex="1">
                    <mxGeometry y="37" width="270" height="20" as="geometry"/>
                </mxCell>
                <mxCell id="47" value="Skriv point ud" style="fillColor=none;strokeColor=none;align=left;verticalAlign=middle;spacingLeft=5;" parent="25" vertex="1">
                    <mxGeometry y="57" width="270" height="20" as="geometry"/>
                </mxCell>
                <mxCell id="48" value="Vis alle liv" style="fillColor=none;strokeColor=none;align=left;verticalAlign=middle;spacingLeft=5;" parent="25" vertex="1">
                    <mxGeometry y="77" width="270" height="20" as="geometry"/>
                </mxCell>
                <mxCell id="49" value="Start timer -animation" style="fillColor=none;strokeColor=none;align=left;verticalAlign=middle;spacingLeft=5;" parent="25" vertex="1">
                    <mxGeometry y="97" width="270" height="20" as="geometry"/>
                </mxCell>
                <mxCell id="50" value="Random position og random delay" style="fillColor=none;strokeColor=none;align=left;verticalAlign=middle;spacingLeft=5;" parent="25" vertex="1">
                    <mxGeometry y="117" width="270" height="20" as="geometry"/>
                </mxCell>
                <mxCell id="51" value="Random position og random delay" style="fillColor=none;strokeColor=none;align=left;verticalAlign=middle;spacingLeft=5;" parent="25" vertex="1">
                    <mxGeometry y="137" width="270" height="20" as="geometry"/>
                </mxCell>
                <mxCell id="52" value="Start op_ned-animationer på elementer" style="fillColor=none;strokeColor=none;align=left;verticalAlign=middle;spacingLeft=5;" parent="25" vertex="1">
                    <mxGeometry y="157" width="270" height="20" as="geometry"/>
                </mxCell>
                <mxCell id="53" value="&lt;span style=&quot;font-size: 12px&quot;&gt;klik på &lt;br&gt;startknap&lt;br&gt;(click)&lt;br&gt;&lt;/span&gt;" style="edgeStyle=orthogonalEdgeStyle;rounded=0;orthogonalLoop=1;jettySize=auto;html=1;exitX=0.5;exitY=1;exitDx=0;exitDy=0;entryX=0.5;entryY=0;entryDx=0;entryDy=0;" parent="1" source="65" target="25" edge="1">
                    <mxGeometry relative="1" as="geometry">
                        <mxPoint x="241" y="186" as="sourcePoint"/>
                    </mxGeometry>
                </mxCell>
                <mxCell id="55" value="clickCarlJohan" style="swimlane;fontStyle=4;align=center;verticalAlign=top;childLayout=stackLayout;horizontal=1;startSize=30;horizontalStack=0;resizeParent=1;resizeParentMax=0;resizeLast=0;collapsible=0;marginBottom=0;html=1;rounded=1;absoluteArcSize=1;arcSize=25;" parent="1" vertex="1">
                    <mxGeometry x="61" y="429" width="200" height="130" as="geometry"/>
                </mxCell>
                <mxCell id="112" value="Tæl op på point" style="fillColor=none;strokeColor=none;align=left;verticalAlign=middle;spacingLeft=5;" parent="55" vertex="1">
                    <mxGeometry y="30" width="200" height="20" as="geometry"/>
                </mxCell>
                <mxCell id="56" value="Skriv point ud" style="fillColor=none;strokeColor=none;align=left;verticalAlign=middle;spacingLeft=5;" parent="55" vertex="1">
                    <mxGeometry y="50" width="200" height="20" as="geometry"/>
                </mxCell>
                <mxCell id="57" value="Afspil lyd (god svampelyd)" style="fillColor=none;strokeColor=none;align=left;verticalAlign=middle;spacingLeft=5;" parent="55" vertex="1">
                    <mxGeometry y="70" width="200" height="20" as="geometry"/>
                </mxCell>
                <mxCell id="58" value="Stop hoppe-animation" style="fillColor=none;strokeColor=none;align=left;verticalAlign=middle;spacingLeft=5;" parent="55" vertex="1">
                    <mxGeometry y="90" width="200" height="20" as="geometry"/>
                </mxCell>
                <mxCell id="114" value="Start forsvind-animation på sprite" style="fillColor=none;strokeColor=none;align=left;verticalAlign=middle;spacingLeft=5;" parent="55" vertex="1">
                    <mxGeometry y="110" width="200" height="20" as="geometry"/>
                </mxCell>
                <mxCell id="63" value="showTitle" style="swimlane;fontStyle=4;align=center;verticalAlign=top;childLayout=stackLayout;horizontal=1;startSize=30;horizontalStack=0;resizeParent=1;resizeParentMax=0;resizeLast=0;collapsible=0;marginBottom=0;html=1;rounded=1;absoluteArcSize=1;arcSize=25;" parent="1" vertex="1">
                    <mxGeometry x="386" y="117" width="140" height="70" as="geometry"/>
                </mxCell>
                <mxCell id="113" value="Skjul andre skærme" style="fillColor=none;strokeColor=none;align=left;verticalAlign=middle;spacingLeft=5;" parent="63" vertex="1">
                    <mxGeometry y="30" width="140" height="20" as="geometry"/>
                </mxCell>
                <mxCell id="65" value="Vis start-slærm" style="fillColor=none;strokeColor=none;align=left;verticalAlign=middle;spacingLeft=5;" parent="63" vertex="1">
                    <mxGeometry y="50" width="140" height="20" as="geometry"/>
                </mxCell>
                <mxCell id="68" value="genstartCarlJohan" style="swimlane;fontStyle=4;align=center;verticalAlign=top;childLayout=stackLayout;horizontal=1;startSize=37;horizontalStack=0;resizeParent=1;resizeParentMax=0;resizeLast=0;collapsible=0;marginBottom=0;html=1;rounded=1;absoluteArcSize=1;arcSize=25;" parent="1" vertex="1">
                    <mxGeometry x="56" y="669" width="210" height="97" as="geometry"/>
                </mxCell>
                <mxCell id="69" value="Giv svampen en ny random position" style="fillColor=none;strokeColor=none;align=left;verticalAlign=middle;spacingLeft=5;" parent="68" vertex="1">
                    <mxGeometry y="37" width="210" height="20" as="geometry"/>
                </mxCell>
                <mxCell id="70" value="Genstart hoppe-animation" style="fillColor=none;strokeColor=none;align=left;verticalAlign=middle;spacingLeft=5;" parent="68" vertex="1">
                    <mxGeometry y="57" width="210" height="20" as="geometry"/>
                </mxCell>
                <mxCell id="71" value="Vis carljohan svampen igen" style="fillColor=none;strokeColor=none;align=left;verticalAlign=middle;spacingLeft=5;" parent="68" vertex="1">
                    <mxGeometry y="77" width="210" height="20" as="geometry"/>
                </mxCell>
                <mxCell id="73" value="Ved klik&lt;br&gt;&amp;nbsp;på carljohan&lt;br&gt;(mousedown)" style="edgeStyle=orthogonalEdgeStyle;rounded=0;orthogonalLoop=1;jettySize=auto;html=1;exitX=0;exitY=0;exitDx=0;exitDy=0;entryX=0.5;entryY=0;entryDx=0;entryDy=0;" parent="1" source="48" target="55" edge="1">
                    <mxGeometry x="0.4951" relative="1" as="geometry">
                        <mxPoint as="offset"/>
                    </mxGeometry>
                </mxCell>
                <mxCell id="74" value="hoppe-animation&lt;br&gt;har kørt én gang&lt;br&gt;(animationiteration)" style="edgeStyle=orthogonalEdgeStyle;rounded=0;orthogonalLoop=1;jettySize=auto;html=1;exitX=0.298;exitY=1.064;exitDx=0;exitDy=0;entryX=1;entryY=0.25;entryDx=0;entryDy=0;exitPerimeter=0;" parent="1" source="52" target="70" edge="1">
                    <mxGeometry x="-0.1333" relative="1" as="geometry">
                        <Array as="points">
                            <mxPoint x="401" y="731"/>
                        </Array>
                        <mxPoint as="offset"/>
                    </mxGeometry>
                </mxCell>
                <mxCell id="75" value="clickFlueSvamp" style="swimlane;fontStyle=4;align=center;verticalAlign=top;childLayout=stackLayout;horizontal=1;startSize=30;horizontalStack=0;resizeParent=1;resizeParentMax=0;resizeLast=0;collapsible=0;marginBottom=0;html=1;rounded=1;absoluteArcSize=1;arcSize=25;" parent="1" vertex="1">
                    <mxGeometry x="625" y="429" width="200" height="130" as="geometry"/>
                </mxCell>
                <mxCell id="76" value="Tæl ned på liv" style="fillColor=none;strokeColor=none;align=left;verticalAlign=middle;spacingLeft=5;" parent="75" vertex="1">
                    <mxGeometry y="30" width="200" height="20" as="geometry"/>
                </mxCell>
                <mxCell id="77" value="Vis antal liv på siden" style="fillColor=none;strokeColor=none;align=left;verticalAlign=middle;spacingLeft=5;" parent="75" vertex="1">
                    <mxGeometry y="50" width="200" height="20" as="geometry"/>
                </mxCell>
                <mxCell id="78" value="Afspil lyd (dårlig svampelyd" style="fillColor=none;strokeColor=none;align=left;verticalAlign=middle;spacingLeft=5;" parent="75" vertex="1">
                    <mxGeometry y="70" width="200" height="20" as="geometry"/>
                </mxCell>
                <mxCell id="138" value="Stop falde-animation" style="fillColor=none;strokeColor=none;align=left;verticalAlign=middle;spacingLeft=5;" parent="75" vertex="1">
                    <mxGeometry y="90" width="200" height="20" as="geometry"/>
                </mxCell>
                <mxCell id="139" value="Start forsvind-animation på sprite" style="fillColor=none;strokeColor=none;align=left;verticalAlign=middle;spacingLeft=5;" parent="75" vertex="1">
                    <mxGeometry y="110" width="200" height="20" as="geometry"/>
                </mxCell>
                <mxCell id="79" value="genstart FlueSvamp" style="swimlane;fontStyle=4;align=center;verticalAlign=top;childLayout=stackLayout;horizontal=1;startSize=37;horizontalStack=0;resizeParent=1;resizeParentMax=0;resizeLast=0;collapsible=0;marginBottom=0;html=1;rounded=1;absoluteArcSize=1;arcSize=25;" parent="1" vertex="1">
                    <mxGeometry x="620" y="669" width="210" height="97" as="geometry"/>
                </mxCell>
                <mxCell id="80" value="Giv svampen en ny random position" style="fillColor=none;strokeColor=none;align=left;verticalAlign=middle;spacingLeft=5;" parent="79" vertex="1">
                    <mxGeometry y="37" width="210" height="20" as="geometry"/>
                </mxCell>
                <mxCell id="81" value="Genstart falde-animation" style="fillColor=none;strokeColor=none;align=left;verticalAlign=middle;spacingLeft=5;" parent="79" vertex="1">
                    <mxGeometry y="57" width="210" height="20" as="geometry"/>
                </mxCell>
                <mxCell id="82" value="Vis fluesvampen igen" style="fillColor=none;strokeColor=none;align=left;verticalAlign=middle;spacingLeft=5;" parent="79" vertex="1">
                    <mxGeometry y="77" width="210" height="20" as="geometry"/>
                </mxCell>
                <mxCell id="84" value="Klik på&lt;br&gt;fluesvamp&lt;br&gt;(mousedown)" style="edgeStyle=orthogonalEdgeStyle;rounded=0;orthogonalLoop=1;jettySize=auto;html=1;exitX=1;exitY=0.75;exitDx=0;exitDy=0;entryX=0.5;entryY=0;entryDx=0;entryDy=0;" parent="1" source="50" target="75" edge="1">
                    <mxGeometry x="-0.351" y="1" relative="1" as="geometry">
                        <mxPoint as="offset"/>
                    </mxGeometry>
                </mxCell>
                <mxCell id="88" value="endGame" style="swimlane;fontStyle=4;align=center;verticalAlign=top;childLayout=stackLayout;horizontal=1;startSize=30;horizontalStack=0;resizeParent=1;resizeParentMax=0;resizeLast=0;collapsible=0;marginBottom=0;html=1;rounded=1;absoluteArcSize=1;arcSize=50;" parent="1" vertex="1">
                    <mxGeometry x="1020" y="419" width="200" height="90" as="geometry"/>
                </mxCell>
                <mxCell id="89" value="Fjern alle animationer" style="fillColor=none;strokeColor=none;align=left;verticalAlign=middle;spacingLeft=5;" parent="88" vertex="1">
                    <mxGeometry y="30" width="200" height="20" as="geometry"/>
                </mxCell>
                <mxCell id="90" value="Fjern alle eventListerner-ere" style="fillColor=none;strokeColor=none;align=left;verticalAlign=middle;spacingLeft=5;" parent="88" vertex="1">
                    <mxGeometry y="50" width="200" height="40" as="geometry"/>
                </mxCell>
                <mxCell id="92" value="levelComplete" style="swimlane;fontStyle=4;align=center;verticalAlign=top;childLayout=stackLayout;horizontal=1;startSize=30;horizontalStack=0;resizeParent=1;resizeParentMax=0;resizeLast=0;collapsible=0;marginBottom=0;html=1;rounded=1;absoluteArcSize=1;arcSize=92;" parent="1" vertex="1">
                    <mxGeometry x="1135" y="573" width="170" height="50" as="geometry"/>
                </mxCell>
                <mxCell id="93" value="Vis levelcomplete skærm" style="fillColor=none;strokeColor=none;align=left;verticalAlign=middle;spacingLeft=5;" parent="92" vertex="1">
                    <mxGeometry y="30" width="170" height="20" as="geometry"/>
                </mxCell>
                <mxCell id="95" value="gameOver" style="swimlane;fontStyle=4;align=center;verticalAlign=top;childLayout=stackLayout;horizontal=1;startSize=30;horizontalStack=0;resizeParent=1;resizeParentMax=0;resizeLast=0;collapsible=0;marginBottom=0;html=1;rounded=1;absoluteArcSize=1;arcSize=92;" parent="1" vertex="1">
                    <mxGeometry x="915" y="573" width="170" height="50" as="geometry"/>
                </mxCell>
                <mxCell id="96" value="Vis gameover skærm" style="fillColor=none;strokeColor=none;align=left;verticalAlign=middle;spacingLeft=5;" parent="95" vertex="1">
                    <mxGeometry y="30" width="170" height="20" as="geometry"/>
                </mxCell>
                <mxCell id="99" style="edgeStyle=orthogonalEdgeStyle;rounded=0;orthogonalLoop=1;jettySize=auto;html=1;exitX=0;exitY=0;exitDx=0;exitDy=0;entryX=0.25;entryY=0;entryDx=0;entryDy=0;" parent="1" source="90" target="95" edge="1">
                    <mxGeometry relative="1" as="geometry">
                        <mxPoint x="954" y="559" as="targetPoint"/>
                    </mxGeometry>
                </mxCell>
                <mxCell id="100" value="[ingen liv tilbage]" style="edgeLabel;html=1;align=center;verticalAlign=middle;resizable=0;points=[];" parent="99" vertex="1" connectable="0">
                    <mxGeometry x="0.2849" relative="1" as="geometry">
                        <mxPoint as="offset"/>
                    </mxGeometry>
                </mxCell>
                <mxCell id="101" value="" style="ellipse;html=1;shape=endState;fillColor=#000000;strokeColor=#000000;" parent="1" vertex="1">
                    <mxGeometry x="943" y="736" width="30" height="30" as="geometry"/>
                </mxCell>
                <mxCell id="102" value="" style="ellipse;html=1;shape=endState;fillColor=#000000;strokeColor=#000000;" parent="1" vertex="1">
                    <mxGeometry x="1163" y="739" width="30" height="30" as="geometry"/>
                </mxCell>
                <mxCell id="115" style="edgeStyle=none;html=1;entryX=0.5;entryY=0;entryDx=0;entryDy=0;" parent="1" source="114" target="68" edge="1">
                    <mxGeometry relative="1" as="geometry"/>
                </mxCell>
                <mxCell id="116" value="Når forsvind-animationen&lt;br&gt;&amp;nbsp;er slut (animationend)" style="edgeLabel;html=1;align=center;verticalAlign=middle;resizable=0;points=[];" parent="115" vertex="1" connectable="0">
                    <mxGeometry x="-0.1722" y="1" relative="1" as="geometry">
                        <mxPoint as="offset"/>
                    </mxGeometry>
                </mxCell>
                <mxCell id="121" style="edgeStyle=orthogonalEdgeStyle;rounded=0;html=1;entryX=0.75;entryY=0;entryDx=0;entryDy=0;" parent="1" target="95" edge="1">
                    <mxGeometry relative="1" as="geometry">
                        <mxPoint x="1105" y="509" as="sourcePoint"/>
                        <Array as="points">
                            <mxPoint x="1105" y="529"/>
                            <mxPoint x="1043" y="529"/>
                        </Array>
                    </mxGeometry>
                </mxCell>
                <mxCell id="124" value="[ellers]" style="edgeLabel;html=1;align=center;verticalAlign=middle;resizable=0;points=[];" parent="121" vertex="1" connectable="0">
                    <mxGeometry x="0.0353" y="2" relative="1" as="geometry">
                        <mxPoint as="offset"/>
                    </mxGeometry>
                </mxCell>
                <mxCell id="122" style="edgeStyle=orthogonalEdgeStyle;rounded=0;html=1;entryX=0.5;entryY=0;entryDx=0;entryDy=0;" parent="1" target="92" edge="1">
                    <mxGeometry relative="1" as="geometry">
                        <mxPoint x="1105" y="509" as="sourcePoint"/>
                        <Array as="points">
                            <mxPoint x="1105" y="529"/>
                            <mxPoint x="1220" y="529"/>
                        </Array>
                    </mxGeometry>
                </mxCell>
                <mxCell id="125" value="[point &amp;gt; = 10]" style="edgeLabel;html=1;align=center;verticalAlign=middle;resizable=0;points=[];" parent="122" vertex="1" connectable="0">
                    <mxGeometry x="-0.0111" relative="1" as="geometry">
                        <mxPoint as="offset"/>
                    </mxGeometry>
                </mxCell>
                <mxCell id="129" style="edgeStyle=orthogonalEdgeStyle;rounded=0;html=1;exitX=1;exitY=0.5;exitDx=0;exitDy=0;entryX=0.75;entryY=0;entryDx=0;entryDy=0;" parent="1" source="48" target="88" edge="1">
                    <mxGeometry relative="1" as="geometry"/>
                </mxCell>
                <mxCell id="130" value="Timer animation færdig (animationend)" style="edgeLabel;html=1;align=center;verticalAlign=middle;resizable=0;points=[];" parent="129" vertex="1" connectable="0">
                    <mxGeometry x="-0.6321" y="2" relative="1" as="geometry">
                        <mxPoint as="offset"/>
                    </mxGeometry>
                </mxCell>
                <mxCell id="140" style="edgeStyle=orthogonalEdgeStyle;rounded=0;html=1;exitX=0.5;exitY=1;exitDx=0;exitDy=0;entryX=0.5;entryY=0;entryDx=0;entryDy=0;" parent="1" source="139" target="79" edge="1">
                    <mxGeometry relative="1" as="geometry"/>
                </mxCell>
                <mxCell id="155" value="&lt;span style=&quot;color: rgba(0, 0, 0, 0); font-family: monospace; font-size: 0px; text-align: start; background-color: rgb(251, 251, 251);&quot;&gt;%3CmxGraphModel%3E%3Croot%3E%3CmxCell%20id%3D%220%22%2F%3E%3CmxCell%20id%3D%221%22%20parent%3D%220%22%2F%3E%3CmxCell%20id%3D%222%22%20value%3D%22N%C3%A5r%20forsvind-animationen%26lt%3Bbr%26gt%3B%26amp%3Bnbsp%3Ber%20slut%20(animationend)%22%20style%3D%22edgeLabel%3Bhtml%3D1%3Balign%3Dcenter%3BverticalAlign%3Dmiddle%3Bresizable%3D0%3Bpoints%3D%5B%5D%3B%22%20vertex%3D%221%22%20connectable%3D%220%22%20parent%3D%221%22%3E%3CmxGeometry%20x%3D%22162%22%20y%3D%22605%22%20as%3D%22geometry%22%2F%3E%3C%2FmxCell%3E%3C%2Froot%3E%3C%2FmxGraphModel%3E&lt;/span&gt;" style="edgeLabel;html=1;align=center;verticalAlign=middle;resizable=0;points=[];" vertex="1" connectable="0" parent="140">
                    <mxGeometry x="-0.2395" relative="1" as="geometry">
                        <mxPoint as="offset"/>
                    </mxGeometry>
                </mxCell>
                <mxCell id="156" value="Når forsvind-animationen&lt;br style=&quot;border-color: var(--border-color);&quot;&gt;&amp;nbsp;er slut (animationend)" style="edgeLabel;html=1;align=center;verticalAlign=middle;resizable=0;points=[];" vertex="1" connectable="0" parent="140">
                    <mxGeometry x="-0.1667" relative="1" as="geometry">
                        <mxPoint as="offset"/>
                    </mxGeometry>
                </mxCell>
                <mxCell id="142" style="edgeStyle=orthogonalEdgeStyle;rounded=0;html=1;exitX=0.75;exitY=1;exitDx=0;exitDy=0;" parent="1" source="52" edge="1">
                    <mxGeometry relative="1" as="geometry">
                        <mxPoint x="620" y="729" as="targetPoint"/>
                        <Array as="points">
                            <mxPoint x="524" y="729"/>
                            <mxPoint x="617" y="729"/>
                        </Array>
                    </mxGeometry>
                </mxCell>
                <mxCell id="143" value="falde-animation&lt;br style=&quot;border-color: var(--border-color);&quot;&gt;har kørt en gang&lt;br style=&quot;border-color: var(--border-color);&quot;&gt;(animationiteration)" style="edgeLabel;html=1;align=center;verticalAlign=middle;resizable=0;points=[];" parent="142" vertex="1" connectable="0">
                    <mxGeometry x="-0.0563" relative="1" as="geometry">
                        <mxPoint y="1" as="offset"/>
                    </mxGeometry>
                </mxCell>
                <mxCell id="144" style="edgeStyle=orthogonalEdgeStyle;rounded=0;html=1;entryX=0.25;entryY=0;entryDx=0;entryDy=0;" parent="1" source="77" target="88" edge="1">
                    <mxGeometry relative="1" as="geometry">
                        <Array as="points">
                            <mxPoint x="870" y="489"/>
                            <mxPoint x="870" y="389"/>
                            <mxPoint x="1070" y="389"/>
                        </Array>
                    </mxGeometry>
                </mxCell>
                <mxCell id="145" value="[ingen liv tilbage]" style="edgeLabel;html=1;align=center;verticalAlign=middle;resizable=0;points=[];" parent="144" vertex="1" connectable="0">
                    <mxGeometry x="0.1598" relative="1" as="geometry">
                        <mxPoint as="offset"/>
                    </mxGeometry>
                </mxCell>
                <mxCell id="147" style="edgeStyle=orthogonalEdgeStyle;rounded=0;html=1;exitX=0.25;exitY=1;exitDx=0;exitDy=0;entryX=0.5;entryY=0;entryDx=0;entryDy=0;" parent="1" source="96" target="101" edge="1">
                    <mxGeometry relative="1" as="geometry"/>
                </mxCell>
                <mxCell id="149" style="edgeStyle=orthogonalEdgeStyle;rounded=0;html=1;exitX=0.25;exitY=1;exitDx=0;exitDy=0;entryX=0.5;entryY=0;entryDx=0;entryDy=0;" parent="1" source="93" target="102" edge="1">
                    <mxGeometry relative="1" as="geometry"/>
                </mxCell>
                <mxCell id="151" style="edgeStyle=orthogonalEdgeStyle;rounded=0;html=1;entryX=1;entryY=1;entryDx=0;entryDy=0;exitX=0.75;exitY=1;exitDx=0;exitDy=0;" parent="1" source="93" target="46" edge="1">
                    <mxGeometry relative="1" as="geometry">
                        <Array as="points">
                            <mxPoint x="1263" y="769"/>
                            <mxPoint x="1350" y="769"/>
                            <mxPoint x="1350" y="326"/>
                        </Array>
                    </mxGeometry>
                </mxCell>
                <mxCell id="154" value="Klik på&amp;nbsp;&lt;br style=&quot;border-color: var(--border-color);&quot;&gt;genstart_2&lt;br style=&quot;border-color: var(--border-color);&quot;&gt;(click)" style="edgeLabel;html=1;align=center;verticalAlign=middle;resizable=0;points=[];" parent="151" vertex="1" connectable="0">
                    <mxGeometry x="-0.9189" y="3" relative="1" as="geometry">
                        <mxPoint x="-6" y="17" as="offset"/>
                    </mxGeometry>
                </mxCell>
                <mxCell id="152" style="edgeStyle=orthogonalEdgeStyle;rounded=0;html=1;entryX=1;entryY=0.25;entryDx=0;entryDy=0;exitX=0.75;exitY=1;exitDx=0;exitDy=0;" parent="1" source="96" target="46" edge="1">
                    <mxGeometry relative="1" as="geometry">
                        <Array as="points">
                            <mxPoint x="1043" y="829"/>
                            <mxPoint x="1390" y="829"/>
                            <mxPoint x="1390" y="311"/>
                        </Array>
                    </mxGeometry>
                </mxCell>
                <mxCell id="153" value="Klik på&amp;nbsp;&lt;br&gt;genstart_1&lt;br&gt;(click)" style="edgeLabel;html=1;align=center;verticalAlign=middle;resizable=0;points=[];" parent="152" vertex="1" connectable="0">
                    <mxGeometry x="-0.9192" y="3" relative="1" as="geometry">
                        <mxPoint as="offset"/>
                    </mxGeometry>
                </mxCell>
            </root>
        </mxGraphModel>
    </diagram>
</mxfile>